HIERARCHY
ROOT root
{
	OFFSET	0	13.1	24.9
	CHANNELS 6  Xposition Yposition Zposition Xrotation Yrotation Zrotation
	JOINT spine_1
	{
		OFFSET	0	9.99999	0
		CHANNELS 3  Xrotation Yrotation Zrotation
		JOINT spine_2
		{
			OFFSET	0	112	-10
			CHANNELS 3  Xrotation Yrotation Zrotation
			JOINT spine_3
			{
				OFFSET	0	206.5	19.3
				CHANNELS 3  Xrotation Yrotation Zrotation
				JOINT spine_4
				{
					OFFSET	0	110.4	14.6
					CHANNELS 3  Xrotation Yrotation Zrotation
					JOINT neck_1
					{
						OFFSET	0	71.8	-50.3
						CHANNELS 3  Xrotation Yrotation Zrotation
						JOINT neck_2
						{
							OFFSET	0	86.2	-25.8
							CHANNELS 3  Xrotation Yrotation Zrotation
							JOINT head_ee
							{
								OFFSET	0	179.8	-8.7
								CHANNELS 3  Xrotation Yrotation Zrotation
								End Site
								{
									OFFSET	1	0	0
								}
							}
						}
					}
					JOINT left_clavicle
					{
						OFFSET	-43.2	22.4	-70.8
						CHANNELS 3  Xrotation Yrotation Zrotation
						JOINT left_shoulder
						{
							OFFSET	-93.9	-5.79999	48.7
							CHANNELS 3  Xrotation Yrotation Zrotation
							JOINT left_elbow
							{
								OFFSET	-291.4	-30.8	15.2
								CHANNELS 3  Xrotation Yrotation Zrotation
								JOINT left_lowarm_twist
								{
									OFFSET	-110.7	-3.89999	13.6
									CHANNELS 3  Xrotation Yrotation Zrotation
									JOINT left_hand
									{
										OFFSET	-110.7	-3.89999	13.6
										CHANNELS 3  Xrotation Yrotation Zrotation
										JOINT left_ee
										{
											OFFSET	-80.8	-5.10001	12.1
											CHANNELS 3  Xrotation Yrotation Zrotation
											End Site
											{
												OFFSET	1	0	0
											}
										}
									}
								}
							}
						}
					}
					JOINT right_clavicle
					{
						OFFSET	43.2	22.4	-70.8
						CHANNELS 3  Xrotation Yrotation Zrotation
						JOINT right_shoulder
						{
							OFFSET	93.9	-5.79999	48.7
							CHANNELS 3  Xrotation Yrotation Zrotation
							JOINT right_elbow
							{
								OFFSET	291.4	-30.8	15.2
								CHANNELS 3  Xrotation Yrotation Zrotation
								JOINT right_lowarm_twist
								{
									OFFSET	110.7	-3.89999	13.6
									CHANNELS 3  Xrotation Yrotation Zrotation
									JOINT right_hand
									{
										OFFSET	110.7	-3.89999	13.6
										CHANNELS 3  Xrotation Yrotation Zrotation
										JOINT right_ee
										{
											OFFSET	80.8	-5.10001	12.1
											CHANNELS 3  Xrotation Yrotation Zrotation
											End Site
											{
												OFFSET	1	0	0
											}
										}
									}
								}
							}
						}
					}
				}
			}
		}
	}
	JOINT left_hip
	{
		OFFSET	-82.8	-127.5	0.300001
		CHANNELS 3  Xrotation Yrotation Zrotation
		JOINT left_knee
		{
			OFFSET	-28.2	-396.7	2.2
			CHANNELS 3  Xrotation Yrotation Zrotation
			JOINT left_ankle
			{
				OFFSET	-11.7	-411.3	35.4
				CHANNELS 3  Xrotation Yrotation Zrotation
				JOINT left_toes
				{
					OFFSET	0	-60	-88.6
					CHANNELS 3  Xrotation Yrotation Zrotation
					JOINT left_foot_ee
					{
						OFFSET	-22.5	-16.5	-42.2
						CHANNELS 3  Xrotation Yrotation Zrotation
						End Site
						{
							OFFSET	1	0	0
						}
					}
				}
			}
		}
	}
	JOINT right_hip
	{
		OFFSET	82.8	-127.5	0.300001
		CHANNELS 3  Xrotation Yrotation Zrotation
		JOINT right_knee
		{
			OFFSET	28.2	-396.7	2.2
			CHANNELS 3  Xrotation Yrotation Zrotation
			JOINT right_ankle
			{
				OFFSET	11.7	-411.3	35.4
				CHANNELS 3  Xrotation Yrotation Zrotation
				JOINT right_toes
				{
					OFFSET	0	-60	-88.6
					CHANNELS 3  Xrotation Yrotation Zrotation
					JOINT right_foot_ee
					{
						OFFSET	22.5	-16.5	-42.2
						CHANNELS 3  Xrotation Yrotation Zrotation
						End Site
						{
							OFFSET	1	0	0
						}
					}
				}
			}
		}
	}
}
MOTION
Frames: 14
Frame Time: 0.02
1372.05 701.618 -1475.22 -14.6324777666 22.4568018235 6.6332154117 1.62072 -0.145656 -0.208341 1.62074 -0.132104 -0.217187 1.62125 -0.0902658 -0.237642 1.62119 -0.126664 -0.220404 0.339585 12.3333 0.303329 0.704107 21.7112 1.52284 -0.0 0.0 -0.0 2.91335 14.7819 6.42902 -2.75873 -40.0539 58.0527 4.04101 -63.4372 2.49823 -6.66415 -0.281919 0.80344 0.321258 -27.6447 -9.61097 -0.0 0.0 -0.0 7.50026 -1.62231 -14.5675 -28.6811 15.6168 -57.9003 0.511814 14.227 -0.0638729 27.0895 -0.147102 3.42527 -0.512678 -29.0573 -8.56703 0.0 0.0 0.0 0.0293776 11.3668 2.35226 -26.6012 0.159171 4.04259 37.1434 12.9308 -4.64244 -15.824 0.0 0.0 -0.0 0.0 -0.0 45.187 6.13442 -0.371033 3.84884 0.177522 0.56375 -15.1175 5.65864 -2.33972 -20.0874 0.0 0.0 0.0 0.0 0.0 
1343.53292954 703.476 -1535.74835898 -15.5324400627 25.4739688713 6.77894763914 1.95224 -0.0734022 -0.0641207 1.95224 -0.0691733 -0.0686615 1.95232 -0.0559486 -0.0798066 1.95232 -0.0678504 -0.069969 1.52089 12.6321 1.62486 1.89466 20.9512 2.82141 -0.0 0.0 -0.0 2.71373 14.2717 6.08263 -5.22455 -40.2217 59.1152 3.55083 -60.3662 2.06567 -7.63318 -0.330641 0.917384 0.442203 -25.7792 -8.03636 -0.0 0.0 -0.0 7.78912 -0.89915 -15.1505 -27.4231 16.4836 -58.6817 0.535421 14.8548 -0.0698 26.5826 -0.159273 3.36166 -0.673464 -28.6246 -7.5267 0.0 0.0 0.0 -1.03023 12.4284 1.93562 -27.0477 0.145778 4.10981 36.0512 14.6109 -4.55709 -16.111 0.0 0.0 -0.0 0.0 -0.0 46.5678 5.01047 -0.376003 -4.25558 -0.151673 -0.635341 -15.1556 -0.02799 -2.29853 -19.6368 0.0 0.0 0.0 0.0 0.0 
1328.62653564 710.183 -1568.55325757 -14.8562085155 25.8358866009 5.33870762346 1.48369 -0.000436327 0.150739 1.4837 -0.0100274 0.150406 1.48367 -0.0376486 0.145963 1.48364 -0.014124 0.150077 0.154869 11.5354 -1.59278 0.552389 21.8565 -0.58123 -0.0 0.0 -0.0 2.88799 14.1865 6.36275 -8.76024 -38.2552 57.6686 3.56681 -60.4765 2.07957 -6.67471 -0.28244 0.804687 0.531564 -28.2057 -8.49371 -0.0 0.0 -0.0 7.91636 -2.08279 -15.377 -27.1742 16.7189 -58.5619 0.610635 16.8302 -0.090336 27.3288 -0.141159 3.45527 -0.383814 -28.3402 -9.00002 0.0 0.0 0.0 -0.688401 13.0192 1.70021 -29.8378 0.050243 4.52732 36.0977 13.9385 -4.55338 -15.6732 0.0 0.0 -0.0 0.0 -0.0 43.5902 4.91983 0.650736 -4.55004 -0.160415 -0.679686 -15.0046 6.40721 -2.33003 -18.146 0.0 0.0 0.0 0.0 0.0 
1314.77673192 713.432 -1601.81686207 -13.6401909636 26.8689639741 5.20824015939 1.47593 0.103887 0.426389 1.47603 0.0765448 0.432135 1.47662 -0.00468199 0.438837 1.47636 0.0646822 0.434069 0.239591 11.9287 -1.57102 0.66625 22.5303 -0.538447 -0.0 0.0 -0.0 1.41775 14.6757 4.00988 -10.5058 -36.6742 59.0563 3.68764 -61.2868 2.18513 -6.45171 -0.271496 0.778353 0.624858 -27.2492 -7.48324 -0.0 0.0 -0.0 8.56219 -1.51355 -16.6739 -26.7154 17.0842 -59.1331 0.513549 14.2733 -0.0643 27.2914 -0.142098 3.45058 -0.617966 -26.8276 -7.12665 0.0 0.0 0.0 -2.1405 11.8083 1.37488 -29.7305 0.0542962 4.51134 35.839 15.4115 -4.5469 -15.3324 0.0 0.0 -0.0 0.0 -0.0 43.1402 4.76131 0.143883 -12.8551 -0.312334 -1.94394 -11.1814 6.69191 -1.73167 -15.8602 0.0 0.0 0.0 0.0 0.0 
1310.10627583 714.332 -1624.91324721 -12.9117302265 27.1453184996 5.57653298621 1.46423 0.242891 0.377445 1.46428 0.218381 0.392136 1.46581 0.142029 0.42578 1.46562 0.20749 0.398006 0.874726 11.9462 -1.46353 1.32738 22.3899 -0.530755 -0.0 0.0 -0.0 1.37678 14.0515 3.89361 -12.2033 -35.4147 58.3207 3.5294 -60.217 2.04705 -6.86386 -0.291802 0.826989 0.910991 -23.5213 -4.00002 -0.0 0.0 -0.0 8.79324 -1.18525 -17.1478 -25.7273 17.3087 -59.7211 0.541999 15.0291 -0.0714962 26.7817 -0.15456 3.38666 -0.963109 -28.391 -5.85872 0.0 0.0 0.0 -0.679646 10.2685 -0.0260147 -34.0164 -0.130609 5.14288 36.4851 19.5938 -4.68231 -15.153 0.0 0.0 -0.0 0.0 -0.0 42.8795 6.2146 -1.68537 -16.9885 -0.319335 -2.57795 -7.71463 4.57367 -1.17754 -13.5409 0.0 0.0 0.0 0.0 0.0 
1297.34949855 717.049 -1649.68598592 -11.7550372322 28.0791759513 3.99114732361 1.44892 0.266302 0.838295 1.44929 0.212422 0.853541 1.45254 0.0505712 0.87812 1.45151 0.188614 0.859115 0.527968 13.2855 -1.57838 1.07163 24.9176 -0.491642 -0.0 0.0 -0.0 0.636502 14.1138 2.69628 -11.5853 -35.0392 59.8853 3.02939 -56.3102 1.62156 -5.93202 -0.246393 0.716822 0.864661 -21.9448 -3.61053 -0.0 0.0 -0.0 8.9214 -0.334855 -17.4357 -24.1751 17.7558 -61.0654 0.58177 16.0767 -0.0821602 27.9172 -0.126017 3.52891 -0.651109 -24.3702 -5.96252 0.0 0.0 0.0 0.608486 11.9468 -1.36896 -38.1208 -0.351561 5.7334 36.8148 18.0877 -4.68558 -14.4152 0.0 0.0 -0.0 0.0 -0.0 40.777 6.1791 -0.76934 -21.0148 -0.282195 -3.1945 0.298405 2.91756 0.0445038 -10.985 0.0 0.0 0.0 0.0 0.0 
1290.35597869 717.608 -1673.08706492 -11.2002871173 26.850076018 4.7487829611 1.29417 0.238541 0.742205 1.29445 0.19083 0.755879 1.29705 0.0453376 0.778275 1.29625 0.167679 0.761349 0.236841 13.1829 0.038849 0.665351 23.4625 1.32394 -0.0 0.0 -0.0 0.449717 14.1002 2.39161 -12.1632 -35.0634 60.2752 2.62343 -52.4134 1.29144 -7.43962 -0.320755 0.894689 0.695406 -19.0757 -3.47694 -0.0 0.0 -0.0 8.66664 1.52582 -16.9658 -19.875 17.9091 -62.7688 0.6389 17.5623 -0.0986927 28.184 -0.118902 3.56224 -1.132 -26.4284 -4.10862 0.0 0.0 0.0 0.551928 3.2216 -0.766779 -41.0518 -0.535033 6.14488 35.9038 24.1538 -4.73303 -13.1237 0.0 0.0 -0.0 0.0 -0.0 39.6224 7.26395 -3.60391 -22.782 -0.252233 -3.464 5.53788 -2.38696 0.802581 -13.717 0.0 0.0 0.0 0.0 0.0 
1295.05388782 717.608 -1674.96205168 -11.0716938648 25.5216827464 4.45739650168 1.29417 0.238541 0.742205 1.29445 0.19083 0.755879 1.29705 0.0453376 0.778275 1.29625 0.167679 0.761349 0.236841 13.1829 0.038849 0.665351 23.4625 1.32394 -0.0 0.0 -0.0 0.449717 14.1002 2.39161 -12.1632 -35.0634 60.2752 2.62343 -52.4134 1.29144 -7.43962 -0.320755 0.894689 0.695406 -19.0757 -3.47694 -0.0 0.0 -0.0 8.66664 1.52582 -16.9658 -19.875 17.9091 -62.7688 0.6389 17.5623 -0.0986927 28.184 -0.118902 3.56224 -1.132 -26.4284 -4.10862 0.0 0.0 0.0 0.551928 3.2216 -0.766779 -41.0518 -0.535033 6.14488 35.9038 24.1538 -4.73303 -13.1237 0.0 0.0 -0.0 0.0 -0.0 39.6224 7.26395 -3.60391 -22.782 -0.252233 -3.464 5.53788 -2.38696 0.802581 -13.717 0.0 0.0 0.0 0.0 0.0 
1295.6476351 719.709 -1696.78256063 -9.80783928804 25.4686399043 3.64480884541 1.16567 0.306132 0.943204 1.16613 0.245496 0.96077 1.1704 0.0583315 0.989919 1.1691 0.213931 0.968287 -1.031 14.2226 1.14285 -0.647698 24.6618 2.83909 -0.0 0.0 -0.0 0.121215 12.4418 1.67115 -12.4871 -35.0552 60.3597 2.23623 -47.9203 0.99387 -5.25077 -0.214334 0.635828 0.910917 -21.5685 -3.14058 -0.0 0.0 -0.0 9.81229 3.55405 -19.3925 -20.8432 20.5857 -62.1561 0.690051 18.8721 -0.114685 30.4966 -0.0507411 3.84975 -0.758895 -28.4972 -7.0117 0.0 0.0 0.0 4.46631 8.01784 -4.55247 -47.0446 -0.974624 6.95477 34.1118 20.6871 -4.4626 -13.678 0.0 0.0 -0.0 0.0 -0.0 37.7194 5.53829 -2.52897 -24.7741 -0.208506 -3.76656 5.9525 7.76079 0.891279 -16.8663 0.0 0.0 0.0 0.0 0.0 
1269.79218594 725.515 -1742.42486048 -7.50110045603 25.4097592997 2.63797557296 0.696112 0.358017 1.05681 0.696687 0.290048 1.07744 0.70243 0.0708006 1.11355 0.700784 0.245766 1.0884 -1.53191 13.9498 0.552547 -1.17223 24.7261 2.27431 -0.0 0.0 -0.0 0.21172 12.8157 1.86331 -13.7304 -32.4188 62.11 1.59301 -38.2752 0.552832 -4.82848 -0.194947 0.585435 0.886846 -18.1022 -1.77818 -0.0 0.0 -0.0 9.92264 4.46826 -19.6465 -16.4388 23.8921 -63.1987 0.633404 17.4204 -0.0970408 29.6535 -0.0769351 3.74525 -1.60362 -28.5625 -2.46883 0.0 0.0 0.0 10.8572 5.3372 -5.99914 -59.0989 -2.10347 8.42542 32.0776 23.4237 -4.30435 -12.1877 0.0 0.0 -0.0 0.0 -0.0 33.5936 9.66529 -4.99321 -29.1148 -0.0769518 -4.41958 18.6319 -0.907414 2.57535 -15.2784 0.0 0.0 0.0 0.0 0.0 
1245.03202766 728.632 -1775.52777961 -7.68731974222 29.13269678 3.13319339878 1.04873 0.193252 1.08695 1.04938 0.123699 1.09704 1.05191 -0.0894544 1.10037 1.05023 0.0854397 1.10068 -2.07759 13.8196 0.10695 -1.74191 24.9302 1.89306 -0.0 0.0 -0.0 -0.674193 13.1982 0.446602 -14.487 -30.8563 64.3845 1.39052 -34.558 0.432559 -3.52948 -0.137651 0.429559 0.696032 -13.669 -1.12842 -0.0 0.0 -0.0 10.1939 7.96435 -20.2683 -12.3081 24.9032 -62.8203 0.684698 18.7359 -0.112959 32.7284 0.0260019 4.12444 -1.31389 -28.3566 -3.94219 0.0 0.0 0.0 15.1359 2.62612 -7.41339 -61.6839 -2.38453 8.70829 28.5072 24.8292 -3.92899 -14.8267 0.0 0.0 -0.0 0.0 -0.0 29.5558 13.6028 -5.70144 -27.5791 -0.129152 -4.18968 23.5375 -10.549 3.16618 -12.2923 0.0 0.0 0.0 0.0 0.0 
1256.69310995 728.632 -1780.19723801 -7.53162703008 26.9447452353 2.80204143165 1.04873 0.193252 1.08695 1.04938 0.123699 1.09704 1.05191 -0.0894544 1.10037 1.05023 0.0854397 1.10068 -2.07759 13.8196 0.10695 -1.74191 24.9302 1.89306 -0.0 0.0 -0.0 -0.674193 13.1982 0.446602 -14.487 -30.8563 64.3845 1.39052 -34.558 0.432559 -3.52948 -0.137651 0.429559 0.696032 -13.669 -1.12842 -0.0 0.0 -0.0 10.1939 7.96435 -20.2683 -12.3081 24.9032 -62.8203 0.684698 18.7359 -0.112959 32.7284 0.0260019 4.12444 -1.31389 -28.3566 -3.94219 0.0 0.0 0.0 15.1359 2.62612 -7.41339 -61.6839 -2.38453 8.70829 28.5072 24.8292 -3.92899 -14.8267 0.0 0.0 -0.0 0.0 -0.0 29.5558 13.6028 -5.70144 -27.5791 -0.129152 -4.18968 23.5375 -10.549 3.16618 -12.2923 0.0 0.0 0.0 0.0 0.0 
1223.93719528 742.609 -1815.41949488 -6.83892127554 28.9846593119 1.66226801568 1.39922 0.348157 1.4666 1.40038 0.254139 1.48577 1.4072 -0.0267853 1.50711 1.4041 0.211544 1.49243 -2.45588 14.3294 1.12454 -2.14949 25.1257 3.10288 -0.0 0.0 -0.0 -0.872556 12.9927 0.0913832 -17.1203 -32.6749 64.8223 1.00144 -26.3848 0.234753 -1.76716 -0.0656071 0.216118 0.552237 -8.0724 0.301783 -0.0 0.0 -0.0 11.2561 10.2383 -22.6062 -8.63852 24.3946 -60.9448 0.66793 18.308 -0.107632 34.1789 0.0816017 4.30131 -1.1696 -26.2724 -3.83304 0.0 0.0 0.0 23.9169 3.63456 -9.51859 -61.654 -2.38121 8.7051 30.5757 25.1321 -4.17682 -17.3256 0.0 0.0 -0.0 0.0 -0.0 23.3132 14.3618 -4.61083 -23.3878 -0.24005 -3.55616 27.291 -16.8345 3.65145 -11.4836 0.0 0.0 0.0 0.0 0.0 
1233.19969073 742.609 -1819.30384276 -6.74053242626 27.4445125035 1.45417778871 1.39922 0.348157 1.4666 1.40038 0.254139 1.48577 1.4072 -0.0267853 1.50711 1.4041 0.211544 1.49243 -2.45588 14.3294 1.12454 -2.14949 25.1257 3.10288 -0.0 0.0 -0.0 -0.872556 12.9927 0.0913832 -17.1203 -32.6749 64.8223 1.00144 -26.3848 0.234753 -1.76716 -0.0656071 0.216118 0.552237 -8.0724 0.301783 -0.0 0.0 -0.0 11.2561 10.2383 -22.6062 -8.63852 24.3946 -60.9448 0.66793 18.308 -0.107632 34.1789 0.0816017 4.30131 -1.1696 -26.2724 -3.83304 0.0 0.0 0.0 23.9169 3.63456 -9.51859 -61.654 -2.38121 8.7051 30.5757 25.1321 -4.17682 -17.3256 0.0 0.0 -0.0 0.0 -0.0 23.3132 14.3618 -4.61083 -23.3878 -0.24005 -3.55616 27.291 -16.8345 3.65145 -11.4836 0.0 0.0 0.0 0.0 0.0 
